# xmcd
#
# Track frame offsets:
#	150
#	15636
#	32008
#	47665
#	60816
#	78225
#	91715
#	108243
#	120920
#	135804
#	150241
#	164259
#
# Disc length: 2354 seconds
#
# Revision: 1
# Processed by: cddbd v1.5.2PL0 Copyright (c) Steve Scherf et al.
# Submitted via: EZCDAudioConverter 6.0.3.1
#
DISCID=6f09300c
DTITLE=Sammy Kershaw - I Won't Back Down
DYEAR=2015
DGENRE=Country
TTITLE0=Take A Letter Maria
TTITLE1=Lay Back Down
TTITLE2=Grillin' And Chillin'
TTITLE3=Fixer Upper
TTITLE4=Groove
TTITLE5=I Won't Back Down
TTITLE6=I Had To Give That Up Too
TTITLE7=I Can't Wait To Waste A Little Time
TTITLE8=Send In The Rodeo Clowns
TTITLE9=Don't Move
TTITLE10=Why You Wanna Do Me This Way
TTITLE11=Let's Lay Here Forever
EXTD=
EXTT0=
EXTT1=
EXTT2=
EXTT3=
EXTT4=
EXTT5=
EXTT6=
EXTT7=
EXTT8=
EXTT9=
EXTT10=
EXTT11=
PLAYORDER=
